<svg width="313" height="70" viewBox="0 0 313 70" fill="none" xmlns="http://www.w3.org/2000/svg">
<path d="M117.9 24.5V42H114.65V34.5H105.6V42H102.35V24.5H105.6V31.725H114.65V24.5H117.9ZM128.289 42.175C126.939 42.175 125.723 41.8833 124.639 41.3C123.556 40.7167 122.706 39.9083 122.089 38.875C121.489 37.825 121.189 36.6417 121.189 35.325C121.189 34.0083 121.489 32.8333 122.089 31.8C122.706 30.7667 123.556 29.9583 124.639 29.375C125.723 28.7917 126.939 28.5 128.289 28.5C129.656 28.5 130.881 28.7917 131.964 29.375C133.048 29.9583 133.889 30.7667 134.489 31.8C135.106 32.8333 135.414 34.0083 135.414 35.325C135.414 36.6417 135.106 37.825 134.489 38.875C133.889 39.9083 133.048 40.7167 131.964 41.3C130.881 41.8833 129.656 42.175 128.289 42.175ZM128.289 39.5C129.439 39.5 130.389 39.1167 131.139 38.35C131.889 37.5833 132.264 36.575 132.264 35.325C132.264 34.075 131.889 33.0667 131.139 32.3C130.389 31.5333 129.439 31.15 128.289 31.15C127.139 31.15 126.189 31.5333 125.439 32.3C124.706 33.0667 124.339 34.075 124.339 35.325C124.339 36.575 124.706 37.5833 125.439 38.35C126.189 39.1167 127.139 39.5 128.289 39.5ZM150.536 28.65L144.811 42H141.586L135.861 28.65H139.111L143.261 38.55L147.536 28.65H150.536ZM164.673 35.4C164.673 35.6167 164.657 35.925 164.623 36.325H154.148C154.332 37.3083 154.807 38.0917 155.573 38.675C156.357 39.2417 157.323 39.525 158.473 39.525C159.94 39.525 161.148 39.0417 162.098 38.075L163.773 40C163.173 40.7167 162.415 41.2583 161.498 41.625C160.582 41.9917 159.548 42.175 158.398 42.175C156.932 42.175 155.64 41.8833 154.523 41.3C153.407 40.7167 152.54 39.9083 151.923 38.875C151.323 37.825 151.023 36.6417 151.023 35.325C151.023 34.025 151.315 32.8583 151.898 31.825C152.498 30.775 153.323 29.9583 154.373 29.375C155.423 28.7917 156.607 28.5 157.923 28.5C159.223 28.5 160.382 28.7917 161.398 29.375C162.432 29.9417 163.232 30.75 163.798 31.8C164.382 32.8333 164.673 34.0333 164.673 35.4ZM157.923 31C156.923 31 156.073 31.3 155.373 31.9C154.69 32.4833 154.273 33.2667 154.123 34.25H161.698C161.565 33.2833 161.157 32.5 160.473 31.9C159.79 31.3 158.94 31 157.923 31ZM170.65 30.6C171.55 29.2 173.133 28.5 175.4 28.5V31.475C175.133 31.425 174.892 31.4 174.675 31.4C173.458 31.4 172.508 31.7583 171.825 32.475C171.142 33.175 170.8 34.1917 170.8 35.525V42H167.675V28.65H170.65V30.6ZM178.229 24.5H185.879C187.746 24.5 189.404 24.8667 190.854 25.6C192.304 26.3167 193.429 27.3417 194.229 28.675C195.029 29.9917 195.429 31.5167 195.429 33.25C195.429 34.9833 195.029 36.5167 194.229 37.85C193.429 39.1667 192.304 40.1917 190.854 40.925C189.404 41.6417 187.746 42 185.879 42H178.229V24.5ZM185.729 39.25C187.012 39.25 188.137 39.0083 189.104 38.525C190.087 38.025 190.837 37.325 191.354 36.425C191.887 35.5083 192.154 34.45 192.154 33.25C192.154 32.05 191.887 31 191.354 30.1C190.837 29.1833 190.087 28.4833 189.104 28C188.137 27.5 187.012 27.25 185.729 27.25H181.479V39.25H185.729ZM198.583 28.65H201.708V42H198.583V28.65ZM200.158 26.45C199.592 26.45 199.117 26.275 198.733 25.925C198.35 25.5583 198.158 25.1083 198.158 24.575C198.158 24.0417 198.35 23.6 198.733 23.25C199.117 22.8833 199.592 22.7 200.158 22.7C200.725 22.7 201.2 22.875 201.583 23.225C201.967 23.5583 202.158 23.9833 202.158 24.5C202.158 25.05 201.967 25.5167 201.583 25.9C201.217 26.2667 200.742 26.45 200.158 26.45ZM219.06 28.65V39.975C219.06 44.675 216.66 47.025 211.86 47.025C210.576 47.025 209.36 46.8583 208.21 46.525C207.06 46.2083 206.11 45.7417 205.36 45.125L206.76 42.775C207.343 43.2583 208.076 43.6417 208.96 43.925C209.86 44.225 210.768 44.375 211.685 44.375C213.151 44.375 214.226 44.0417 214.91 43.375C215.593 42.7083 215.935 41.6917 215.935 40.325V39.625C215.401 40.2083 214.751 40.65 213.985 40.95C213.218 41.25 212.376 41.4 211.46 41.4C210.193 41.4 209.043 41.1333 208.01 40.6C206.993 40.05 206.185 39.2833 205.585 38.3C205.001 37.3167 204.71 36.1917 204.71 34.925C204.71 33.6583 205.001 32.5417 205.585 31.575C206.185 30.5917 206.993 29.8333 208.01 29.3C209.043 28.7667 210.193 28.5 211.46 28.5C212.426 28.5 213.301 28.6583 214.085 28.975C214.885 29.2917 215.551 29.775 216.085 30.425V28.65H219.06ZM211.935 38.75C213.118 38.75 214.085 38.4 214.835 37.7C215.601 36.9833 215.985 36.0583 215.985 34.925C215.985 33.8083 215.601 32.9 214.835 32.2C214.085 31.5 213.118 31.15 211.935 31.15C210.735 31.15 209.751 31.5 208.985 32.2C208.235 32.9 207.86 33.8083 207.86 34.925C207.86 36.0583 208.235 36.9833 208.985 37.7C209.751 38.4 210.735 38.75 211.935 38.75ZM223.168 28.65H226.293V42H223.168V28.65ZM224.743 26.45C224.176 26.45 223.701 26.275 223.318 25.925C222.935 25.5583 222.743 25.1083 222.743 24.575C222.743 24.0417 222.935 23.6 223.318 23.25C223.701 22.8833 224.176 22.7 224.743 22.7C225.31 22.7 225.785 22.875 226.168 23.225C226.551 23.5583 226.743 23.9833 226.743 24.5C226.743 25.05 226.551 25.5167 226.168 25.9C225.801 26.2667 225.326 26.45 224.743 26.45ZM238.42 41.275C238.053 41.575 237.603 41.8 237.07 41.95C236.553 42.1 236.003 42.175 235.42 42.175C233.953 42.175 232.82 41.7917 232.02 41.025C231.22 40.2583 230.82 39.1417 230.82 37.675V31.25H228.62V28.75H230.82V25.7H233.945V28.75H237.52V31.25H233.945V37.6C233.945 38.25 234.103 38.75 234.42 39.1C234.736 39.4333 235.195 39.6 235.795 39.6C236.495 39.6 237.078 39.4167 237.545 39.05L238.42 41.275ZM246.09 28.5C248.057 28.5 249.557 28.975 250.59 29.925C251.64 30.8583 252.165 32.275 252.165 34.175V42H249.215V40.375C248.832 40.9583 248.282 41.4083 247.565 41.725C246.865 42.025 246.015 42.175 245.015 42.175C244.015 42.175 243.14 42.0083 242.39 41.675C241.64 41.325 241.057 40.85 240.64 40.25C240.24 39.6333 240.04 38.9417 240.04 38.175C240.04 36.975 240.482 36.0167 241.365 35.3C242.265 34.5667 243.674 34.2 245.59 34.2H249.04V34C249.04 33.0667 248.757 32.35 248.19 31.85C247.64 31.35 246.815 31.1 245.715 31.1C244.965 31.1 244.224 31.2167 243.49 31.45C242.774 31.6833 242.165 32.0083 241.665 32.425L240.44 30.15C241.14 29.6167 241.982 29.2083 242.965 28.925C243.949 28.6417 244.99 28.5 246.09 28.5ZM245.665 39.9C246.449 39.9 247.14 39.725 247.74 39.375C248.357 39.0083 248.79 38.4917 249.04 37.825V36.275H245.815C244.015 36.275 243.115 36.8667 243.115 38.05C243.115 38.6167 243.34 39.0667 243.79 39.4C244.24 39.7333 244.865 39.9 245.665 39.9ZM256.176 23.45H259.301V42H256.176V23.45Z" fill="#4E4E4E"/>
<path d="M35 70C54.33 70 70 54.33 70 35C70 15.67 54.33 0 35 0C15.67 0 0 15.67 0 35C0 54.33 15.67 70 35 70Z" fill="url(#paint0_linear)"/>
<defs>
<linearGradient id="paint0_linear" x1="59.7485" y1="10.2515" x2="10.2515" y2="59.7485" gradientUnits="userSpaceOnUse">
<stop stop-color="#FFD800"/>
<stop offset="1" stop-color="#E41213"/>
</linearGradient>
</defs>
</svg>
